/* XPM */
static char *_e44549cea7b4d23ad972f6d61337475ICVnryv436X8UioM[] = {
/* columns rows colors chars-per-pixel */
"64 64 218 2 ",
"   c #0A0F1C",
".  c #0A101E",
"X  c #0A0F22",
"o  c #0B1224",
"O  c #0B142C",
"+  c #0E192E",
"@  c #10172B",
"#  c #101A2C",
"$  c #0C1632",
"%  c #0D1934",
"&  c #0D1B3C",
"*  c #111B34",
"=  c #111D3C",
"-  c #101734",
";  c #12213B",
":  c #122037",
">  c #0E1E42",
",  c #0E1F49",
"<  c #111E42",
"1  c #111F49",
"2  c #0E2045",
"3  c #0E214A",
"4  c #122144",
"5  c #11234B",
"6  c #1A2B4C",
"7  c #162A40",
"8  c #0F255B",
"9  c #0E2353",
"0  c #122553",
"q  c #142A54",
"w  c #1B2C54",
"e  c #12275A",
"r  c #142B5B",
"t  c #1B2E5B",
"y  c #1C3155",
"u  c #1C315C",
"i  c #1E3959",
"p  c #19304A",
"a  c #243656",
"s  c #23355C",
"d  c #26395B",
"f  c #293B5D",
"g  c #283957",
"h  c #142D63",
"j  c #1B2F62",
"k  c #152E6A",
"l  c #1C3264",
"z  c #15316B",
"x  c #1C336C",
"c  c #1E396B",
"v  c #183566",
"b  c #1C2F75",
"n  c #163471",
"m  c #1C3374",
"M  c #1D3A75",
"N  c #1D347C",
"B  c #1D3A7B",
"V  c #0F2761",
"C  c #223663",
"Z  c #253A63",
"A  c #293D64",
"S  c #223769",
"D  c #243B6C",
"F  c #293E6C",
"G  c #213774",
"H  c #243C73",
"J  c #293E73",
"K  c #20367E",
"L  c #223C7B",
"P  c #293F79",
"I  c #2D4165",
"U  c #2C426B",
"Y  c #254469",
"T  c #31446B",
"R  c #314469",
"E  c #264174",
"W  c #2B4274",
"Q  c #294F72",
"!  c #26427A",
"~  c #2B437B",
"^  c #264B7D",
"/  c #2C497E",
"(  c #244972",
")  c #304774",
"_  c #334C75",
"`  c #30477D",
"'  c #324B7E",
"]  c #2D5372",
"[  c #2B537B",
"{  c #36547A",
"}  c #1E3682",
"|  c #1E3984",
" . c #1E368B",
".. c #1E3A8B",
"X. c #1F3B93",
"o. c #1F3B9B",
"O. c #203682",
"+. c #213C84",
"@. c #213B8C",
"#. c #20378C",
"$. c #213C95",
"%. c #213E9B",
"&. c #203FA1",
"*. c #1E4186",
"=. c #234382",
"-. c #2C4483",
";. c #254C84",
":. c #2C4A84",
">. c #22428A",
",. c #2B458B",
"<. c #244B8D",
"1. c #2C4A8B",
"2. c #304781",
"3. c #324B84",
"4. c #304788",
"5. c #334C8A",
"6. c #2C5485",
"7. c #2C548A",
"8. c #2A5586",
"9. c #365185",
"0. c #385387",
"q. c #35518C",
"w. c #39538C",
"e. c #3C5B8E",
"r. c #385B85",
"t. c #2C4794",
"y. c #2E4A92",
"u. c #22429D",
"i. c #274796",
"p. c #334C92",
"a. c #314C9A",
"s. c #2D5494",
"d. c #2C569F",
"f. c #355293",
"g. c #395594",
"h. c #325D93",
"j. c #3C5B93",
"k. c #36559B",
"l. c #38569B",
"z. c #365B9B",
"x. c #39599A",
"c. c #35629C",
"v. c #3A6A9B",
"b. c #3A6496",
"n. c #386A96",
"m. c #2344A4",
"M. c #264AAB",
"N. c #2648A9",
"B. c #324DA2",
"V. c #2E5DA4",
"C. c #2E5CAC",
"Z. c #2B50A1",
"A. c #3754A2",
"S. c #315EA4",
"D. c #3959A4",
"F. c #3659AB",
"G. c #3657A9",
"H. c #2D5BB9",
"J. c #345BB2",
"K. c #305BBD",
"L. c #3463A5",
"P. c #3B6CA5",
"I. c #3262AB",
"U. c #356AAD",
"Y. c #3D6BAB",
"T. c #3965A6",
"R. c #3E73AD",
"E. c #3264B5",
"W. c #376BB2",
"Q. c #396EB5",
"!. c #3365BA",
"~. c #366CBC",
"^. c #396DBC",
"/. c #3B72BC",
"(. c #3D75B8",
"). c #2E60AA",
"_. c #43669C",
"`. c #466D95",
"'. c #4374AC",
"]. c #4974A6",
"[. c #4175B4",
"{. c #437CBE",
"}. c #467BB7",
"|. c #446AB4",
" X c #315FC0",
".X c #2C5AC0",
"XX c #3466C5",
"oX c #3B6EC2",
"OX c #3B6ECE",
"+X c #366FC3",
"@X c #3C74C4",
"#X c #3E7AC4",
"$X c #3D76CA",
"%X c #3E7BC9",
"&X c #3672C5",
"*X c #3D79D1",
"=X c #437DC3",
"-X c #4781AC",
";X c #5A8EBF",
":X c #5585B4",
">X c #4F89B5",
",X c #3F81D7",
"<X c #4886C7",
"1X c #4E92CC",
"2X c #559ACA",
"3X c #4B8AD4",
"4X c #5798D3",
"5X c #599CDA",
"6X c #5595D9",
"7X c #538DCB",
"8X c #6299CB",
"9X c #6199D0",
"0X c #5DA0DB",
"qX c #65A8DA",
"wX c #5A9DE1",
"eX c #5DA5E5",
"rX c #66ABE4",
"tX c #6CB3E5",
/* pixels */
"qXqX8X8X8X;X;X:X].].].]._.e.r.e.`.e._.e.e.0.e.e.j._._._.j.w.w.w.x.f.f.f.f.f.f.w.3.) T T A T A A R R R F / ` ` ` 2.' ' 9.0.g.x.|.",
"qX;X:X].`.`.{ ) I I I I I R R T _ { T _ _ _ _ ' ' ' ' 2.2.2.2.4.5.5.5.5.4.4.4.P P A f f f f f f f f f F W W W / W W J U E ) / 4.",
"8X`.{ R R U T A A A A I I I R R T F T J T J ) ) ) ) ) J W ~ ~ ~ ~ -.-.,.2.` +.2.-.P J Z f f f A F ) ` ) ~ ! W E F F F F F W W W ",
"].R f I A A F A A W F A f f A A F J P P 2.` ` ` 2.2.P ) J ) ~ P ~ ` 2.2.2.2.4.4.4.` ) W ) J J ` -.` 2.4.1.:.~ ~ E A A U F A W ~ ",
"0.A f I f I A F F J F A F J F J J P O.P ) J F J ) F U U U ) ) ` ) ` 2.p.p.4.5.5.p.5.5.5.5.q.3.3.3.5.s.y.y.1.>.-.,.P W P A F A E ",
"5.' Q I I R U U U F J W ` P P P P J P F A f f F R F T T U W ) ) ` 3.4.p.p.4.5.p.5.p.a.g.f.q.f.f.f.f.s.y.i.i.t.i.,.-.-.! W F A W ",
"T.x.' ) I R R Q W W J W P P P P J J F A f f f F A A F A U P W ) _ 3.3.w.5.2.2.p.p.f.f.f.f.k.l.k.f.s.p.,.t.i.t.,.,.+.-.! W A U 2.",
"=XY.q.W I I Y W ) W J ) J F A A A A f f f f f F A U F J J F J J P ` 3.0.w.9.5.9.5.f.f.l.k.z.l.l.k.5.5.y.t.t.y.t.-.-.~ -.~ J ~ t.",
"{.x.' W U A Y U U ) U U I A f d f Z Z f f f A A F F F J J D J J J P 4.5.2.0.2.3.w.5.w.g.l.l.D.l.q.5.5.t.a.t.t.-.-.~ ! ! -.P ~ 4.",
"'.v./ Y I A f I I U U U I f f d f s g g g s f A F S J F D J D J F P P 5.p.w.w.3.2.0.g.g.G.G.D.l.q.5.t.t.t.2.~ / ~ P ! P ! ~ -.1.",
"Y.z.W U A f f f A F A A A d f d g g g g s s f s C F F F S J F J J J P 3.0.0.w.3.3.w.g.A.J.J.F.l.5.4.-.4.2.2.` ) W W ~ ~ ~ ~ -.y.",
"'.h./ U C f d d d Z Z Z d d d d a a a s s C C C S S S J G J P J J J J 3.2.0.2.0.3.g.g.l.F.F.F.l.w.2.2.2.2.2.` ` ! ~ P ~ P P 2.t.",
"'.z./ Z f d g a a a s d C d Z d f s Z C F F F A F J J J P ` ` ` ` ' ' 0.' ' 0._ 0.w.w.l.G.F.G.l.5.` ' ' ` ' ` ` P ) P P P +.4.p.",
"T.z.2.A f d d s Z Z Z Z A Z A F A F J J J J J J J J T ) ` ` 2.3.w.0.2.0.0.' ' 2.0.w.g.g.A.A.A.f.' T ) ) ) T I T J F J F P 2.4.a.",
"Y.L.:.W A A d Z A Z Z Z A I A U T F J J J J P J J T ` ` 4.5.5.0.w.w.w.3.2.2.2.0.3.3.3.p.a.B.B.4.) U T A A A A F P F F P P P 2.a.",
"[.z.:.~ J A Z F H F F F Y U F F F J J J ` P ` P T ) 0.4.w.5.w.w.w.w.w.0.w.4.0.w.w.3.2.p.B.B.a.4.W W W J F P P P P J J P 2.4.4.a.",
"Y.f.~ J J J F E W E E U T ) U E E W W W ~ ~ 2.2./ 2.0.5.g.w.g.e.j.p.p.5.5.p.g.w.0.0.4.5.y.y.4.~ ` P P J J ! -.-.,.L P P -.2.4.p.",
"x.;.! F F F F E W W / E F D D E W W W / ` ` 2.5.q.f.l.g.g.g.l.g.w.w.w.9.w.w.0.3.2.4.4.4.4.5.5.4.-.~ +.,.,.,.,.,.,.-.+.-.~ -.,.y.",
"c.-.E D S F D J E E E E J H H H H E W ! / / 3.5.x.x.l.l.g.p.f.5.5.5.w.0.0.9.3.:.-.4.4.5.5.p.p.-.4.+.-.,.,.,.1.-.-.+.~ ~ P -.,.5.",
"Y.:.! D D S S S S D D D H H H H H P H E W / 3.5.5.5.f.k.l.f.f.5.2.0.9.5.9.4.3.2.4.4.5.5.p.p.5.-.+.-.-.,.-.,.,.-.P P ~ P ~ -.,.y.",
"(.7.! D S Z c l C S Z J E E E E E J J J J E W ~ ! / 5.A.A.f.f.5.5.9.2.4.` 3.:.4.4.2.4.4.:.-.-.,.4.4.t.+.-.,.-.~ ! -.-.P P -.5.-.",
"<X1.! D D D S S S D F E E ! ! ~ ! H J W ! J J J H P P ,.y.5.:.:.4.` ' 2.2.2.4.' 3.3./ / -.-.-.-.,.,.-.~ P -.! J E P -.^ J ~ -.-.",
"Q.1.E S S S S H S F W W E ^ / ' ^ / ~ ^ / ! ! W J P L L ,.,.1.~ / W ) W ~ ` ` ' ) J P ! ! -.-.! P P -.-.P P J J F F J P J P ,.1.",
"}.^ F D S c D G H J U E E / / :.3.:.:.2.-.~ ! ! ~ L L L ! -.:.W F D J P F D F P ~ ~ W J F J J J P J H L P ! H J F D D J J H ,.t.",
"[.^ H S S S G G C F F J E W / / 6.:.:.:.1.;./ ~ ! L +.L K H G D D D E F C C C F E W W U Z D D H P H H H L ~ H D H D J H J H ! ,.",
"Y.! J S S s j j C S S F E E E ;.:.:.;.:.:.:.~ ~ ! H H G M m x m m S m C s y a C S D Y D F F F H H G H H +.=.+.H D P +.P D S J ,.",
"T.D C C C t t u j C C S H E H J ! ! W ! ^ ~ ~ ! H H H c c l l l l M m m m G G H H D S D c H D D D c c S C C S H c +.=.L D D H =.",
"P.C C s w w w t t s s C S D D H E E W H J H ! H S S H c u u t j l l l j l G K H L L H D H H M H L H J S l l H c M L L D c D H s.",
"R.i a w 6 6 6 w u s s s C C S H H ! L =.+.=.L H c j j j t t t m M N N S w w s s C G L B B L L L B H H c l S G =.=.B M D c H ^ }.",
"R.S u w 6 6 6 6 6 w u t u t l l M L B B M G m j t t t j l j l l C x l j y y w t l x M L | >.*.>.>.| B B M H M L =.L H B =.L ! T.",
"v.c i t w t t l S l l u w w w t t l j l j x j x m m m l l l c l m l l j j j l C x B | ..+.>.*.*.i.*.*...=.B B L B +.*.<.>.<.<.>X",
"-X}.'.'.'.[./.^.^./.#X/.Q.[.=X#X%X%X%X%X%X%X@X&X#X@X@X~.^./.^.Q./././.W.Y.I.S.V.L.I.I.I.L.V.V.).V.L.L.L.U.U.U.W.U.W.W.Q.~.~.>X3X",
"0XrXeX3X$XXXXX.XH.K..X XXXOXOXOXK.C.J.!.!.^.^.oX^.oXoX@X@X$X=X#X$X$X$X$X$X@XoXoXXX^./.^.{.^.^.^.^.^.^.[.^.^./.^./.^.oX=X6XeXrXeX",
"5XwX$X.XM.N.m.m.m.o.u.o.o.o.o.o.$.$.$. .#.@.O.} O.N K K K O.O.O.O.#.O.} K K O.N } | #.+.#.#.$.@.$.$.%.u.m.&.N.N.N.m.m.&.M.=XwXtX",
"rX6XH.M.m.m.m.m.m.&.&.&.o.X. . . . . . .#. ...#.#.O.O.O.K O.L } K L O.O.O.O.K N } } } } N b N N } O.K O.} }  .#.@.#.$.$.%.oXwXtX",
"6X{.<.u.m.m.m.m.m.m.m.m.&.o.o.X.X. .} } | | ..| #.O.O.O.O.O.} | O.O.O.O.} K } K N N N b b b b b b b b N N N } | #.#.#.#.@.E.wXrX",
"6X<Xt.@.u.u.u.u.o.o.X.X. .| }  . .O.} } } } } } K O.O.} } } } } | N N } } } } O.} N N n b b b m b N N N b N } } ......*.Z.6XrXqX",
"4X6Xs.L L @..... .| } } } | } } } N N } B } } } | | | | B | } } } } } } } | | } } } } N N } N B N B B B } | } | | | ..u.^.5XrXqX",
"4X5X=X,.O.N B N N N N N B } } | ....@.$.$.u.u.u.u.m.u.%.u.u.X.X...X.X.X.X.X.X.X.....| | ......X.@.......| | | | | >.i.).1XqXqXqX",
"<X<X1X7X[.L.L.S.d.V.V.V.V.V.).I.C.I.~.@X!.!.~.&X*X,X*X*X&X!.C.C.!.~.&X&X&X+X~.~.^.^.^.^./.&X&X~.E.!.E.E.E.E.!.E.W.=X<X1X1X2X2X2X",
"'.{ Y 6 6 u c c F c v u q y r l h l t l c H ^ ;.,.<.*.| B B n | | B <.<.<.;.B B n ( B ^ ;.8.8.8.:.;.;.=.! ;.<.1.y.<.<.s.c.-X2X;X",
"c.7 : : : ; 4 ; 4 = : * % % * : % * * $ O * = 4 0 V k k k h h r h h n n z z n z v n z z v h h r r e e r h h l j h z x m v h.>X-X",
"P.q : ; = = & ; = = * % + + % % % O # * > < 1 4 1 0 0 e 9 0 e h z z z n n z z z z z z z v V h h r 0 e r h k k k z j j e q Y n.n.",
"P.p + + * = ; & > > 4 < % + + % - % = 1 1 1 < > > - - $ & 2 q h V z n n z z z z z z z z h V r r e e e 0 e 0 0 w 4 4 1 4 0 v h.v.",
"n.# @ @ # ; % = < 1 , 1 $ + # + % - - > > , 1 1 & & - $ $ & > , q h r v z n n z z z v r r 8 8 q e 0 5 4 = = ; = = = = = = q 1.'.",
"{ # @ @ O - = = > 5 1 & @ + $ $ $ $ $ & > > , , > & & $ $ & > > 3 9 q q 9 V v r 9 9 9 q p 9 3 p 5 5 5 5 4 * = = = * * * = w L P.",
"] # @ o . o + % & = < = $ + $ % % & - > & > > > , , > > > > > > 3 3 3 9 3 p 9 3 3 3 3 3 ; 3 3 3 5 5 5 5 4 < = = - - - * = = w h.",
"] : - # @ @ o O $ & & $ + $ % $ & & < & = < < & & > > & & > > > ; & ; 2 3 3 3 3 3 ; ; & 2 & 2 3 5 5 5 5 4 ; 4 = * = * * # * = w ",
"Q & % + @ o @ @ + % + + $ = % & & & 2 2 & 2 & 2 & & & & $ > $ > $ > > , , 8 , , 4 2 > 4 ; 4 4 3 5 3 5 3 1 < < = & = - - # * * w ",
"Y : % + @ o o o o @ O + O $ % - $ & & 2 2 2 2 2 2 & & & > $ $ $ $ $ $ , 8 8 9 , 2 & & & & & 2 2 2 4 4 5 , < > 1 4 4 - - @ # * w ",
"Z # + o o o o o O O O @ O O O $ $ & & & 2 2 3 2 2 2 2 2 & > & $ $ $ $ $ > > > > & & & 4 > 2 2 > > 1 2 3 0 e 0 5 e 0 1 = + # = j ",
"y # o o o . o o o o X o o O O O $ $ & 2 & 2 2 2 2 > 2 2 , , > $ $ $ $ $ $ O $ $ % & & & < 2 3 > > > > , 1 9 9 5 0 0 1 < = * < x ",
"u O o . . o . . . . X X o o O O $ & & & & > 2 2 2 & & > , , & $ O X $ $ $ $ $ $ $ % $ > & > 3 > > 1 > & & < < 3 0 4 < 4 < = w ;.",
"p O o . . . .   . X X X O $ $ % $ & & > 3 9 9 > 2 > & & & $ & $ $ $ $ > $ $ X X O O % $ & > > > > & & & & & 1 > 5 4 = * < 4 0 8.",
"y O . . . . .   . O X $ O $ $ & $ > & > 8 8 8 3 > & & & & & $ & > $ $ $ $ O $ X X O $ & & > , 3 4 > > > > < = < 1 < # + * 4 0 ^ ",
"y O . . . .     X X O O $ $ % & & & > 9 8 V 8 , 2 2 2 & > & & & $ $ $ $ O $ X O X O O $ & > 2 , > 2 2 4 4 > > & = $ @ @ @ 4 q [ ",
"i o . .         . X O O O $ & & & & & 3 9 8 9 > 2 > 2 & & & & % $ $ X X X X X $ O O $ $ & > > , > 1 4 < & & > 1 - - # + + < w 6.",
"i O o o         X X o O O $ + % & & & 2 , 2 & & $ & & & & & & & $ $ $ X $ $ $ $ $ $ & & > > & > > , > & < = > = = $ * = - < t 6.",
"p O o o .       X o O O $ $ + % % & % & $ & & $ $ $ $ $ $ $ % $ $ $ X $ X X $ $ $ - & & > > & & > > 1 & & - % % $ = = = ; 5 u [ ",
"i O X X . . . . X O O O $ O O $ $ & $ % $ & $ $ $ $ $ $ $ $ $ $ $ $ $ X $ $ $ $ $ & > < & & & & & & = < 1 & & * - < < < 4 5 v ^ ",
"] ; + . X X X . X X X O O O $ O $ $ $ $ $ O $ X X X O $ $ % $ $ $ $ - $ $ $ $ $ $ & > > > & & > < < 1 4 5 4 & 4 = 4 2 4 4 w Y [ ",
"] i : o X X o . X o O O O O $ $ $ $ $ O X O O O $ $ $ $ + % % $ $ - $ - > $ > > = = < < < = < > < < < < 2 4 4 4 4 4 4 4 4 C 8.b.",
"] Q i : O X . o O o + o O $ O O O O $ O $ + $ $ $ + X O @ @ + % % * - < - < > > < < < < = < > > 1 4 4 4 5 6 5 q r q r v c ;.h.n.",
"] ] [ ( p i Y p 7 ; ; : % ; : & & : % : : & ; ; % % + + @ # # * ; 4 1 0 0 0 0 9 r l t q w r t Y c E ^ ^ 7.8.8.7.7.h.h.h.h.c.n.n."
};
