/* XPM */
static char *_e863baf16974065d97dafc7caa79875jFX9rHK8ECf4iYhd[] = {
/* columns rows colors chars-per-pixel */
"64 64 231 2 ",
"   c #004D09",
".  c #015B05",
"X  c #01550C",
"o  c #015C0B",
"O  c #015607",
"+  c #014C12",
"@  c #014B16",
"#  c #035615",
"$  c #1B5A1B",
"%  c #016305",
"&  c #01640C",
"*  c #016B0D",
"=  c #016B02",
"-  c #017303",
";  c #017C02",
":  c #01730B",
">  c #01780B",
",  c #016415",
"<  c #016C14",
"1  c #016619",
"2  c #016D1B",
"3  c #017314",
"4  c #017B15",
"5  c #01741B",
"6  c #017C1B",
"7  c #014E2A",
"8  c #014E23",
"9  c #01552B",
"0  c #015B2D",
"q  c #075923",
"w  c #015633",
"e  c #015C32",
"r  c #01553C",
"t  c #025C3C",
"y  c #0F5D3D",
"u  c #1B5B20",
"i  c #01622D",
"p  c #076829",
"a  c #156529",
"s  c #017422",
"d  c #017C23",
"f  c #01772C",
"g  c #016334",
"h  c #026B35",
"j  c #01653B",
"k  c #016B3C",
"l  c #0B6B37",
"z  c #126B32",
"x  c #01723D",
"c  c #067736",
"v  c #19773A",
"b  c #247435",
"n  c #266F2C",
"m  c #015645",
"M  c #015B43",
"N  c #02574A",
"B  c #015C53",
"V  c #015758",
"C  c #024E4E",
"Z  c #016443",
"A  c #016C43",
"S  c #01644C",
"D  c #016D4B",
"F  c #0A6249",
"G  c #017443",
"H  c #017B45",
"J  c #01744C",
"K  c #017C4A",
"L  c #016453",
"P  c #016B54",
"I  c #02655B",
"U  c #016B5B",
"Y  c #017354",
"T  c #017C53",
"R  c #01735C",
"E  c #017C5B",
"W  c #156755",
"Q  c #025D61",
"!  c #02586C",
"~  c #025978",
"^  c #016464",
"/  c #016C63",
"(  c #026669",
")  c #016C6B",
"_  c #017463",
"`  c #017B64",
"'  c #02746B",
"]  c #017C6B",
"[  c #016C73",
"{  c #016C7A",
"}  c #02607E",
"|  c #027473",
" . c #017C73",
".. c #02747A",
"X. c #017B7C",
"o. c #097578",
"O. c #17746D",
"+. c #018402",
"@. c #018C02",
"#. c #01840D",
"$. c #018B0C",
"%. c #019402",
"&. c #019C02",
"*. c #01940B",
"=. c #019B0C",
"-. c #018315",
";. c #018B15",
":. c #01841C",
">. c #018B1D",
",. c #019514",
"<. c #019B14",
"1. c #01931D",
"2. c #019A1C",
"3. c #01A401",
"4. c #01AB01",
"5. c #01AA0A",
"6. c #01A20C",
"7. c #01B301",
"8. c #01BA01",
"9. c #01B30B",
"0. c #01AC13",
"q. c #01A31C",
"w. c #01A615",
"e. c #01B218",
"r. c #018422",
"t. c #018C23",
"y. c #018329",
"u. c #018E28",
"i. c #019423",
"p. c #019A25",
"a. c #01952A",
"s. c #019B2B",
"d. c #058037",
"f. c #019532",
"g. c #029C34",
"h. c #1B8238",
"j. c #01A425",
"k. c #01A22C",
"l. c #01AC2C",
"z. c #01AA24",
"x. c #01A331",
"c. c #01A931",
"v. c #01A23A",
"b. c #01834C",
"n. c #01884E",
"m. c #018345",
"M. c #01984A",
"N. c #018453",
"B. c #018A53",
"V. c #01835C",
"C. c #018B5B",
"Z. c #01925C",
"A. c #029456",
"S. c #01A143",
"D. c #018462",
"F. c #018B64",
"G. c #01836C",
"H. c #018B6B",
"J. c #0E876B",
"K. c #11876C",
"L. c #019264",
"P. c #01926B",
"I. c #029B68",
"U. c #018374",
"Y. c #018C73",
"T. c #01847C",
"R. c #018C7B",
"E. c #0A8A75",
"W. c #138775",
"Q. c #019373",
"!. c #01947B",
"~. c #01997C",
"^. c #069778",
"/. c #02A168",
"(. c #02A272",
"). c #015F81",
"_. c #016484",
"`. c #016B8B",
"'. c #016783",
"]. c #017583",
"[. c #017B83",
"{. c #02758C",
"}. c #017D8C",
"|. c #016D94",
" X c #026A97",
".X c #017593",
"XX c #017B92",
"oX c #01749C",
"OX c #017C9B",
"+X c #0173A2",
"@X c #017BA3",
"#X c #018483",
"$X c #028B83",
"%X c #02848B",
"&X c #028A8C",
"*X c #0A8687",
"=X c #019484",
"-X c #019A84",
";X c #01958B",
":X c #019A8C",
">X c #0A9789",
",X c #018395",
"<X c #028B92",
"1X c #028599",
"2X c #019493",
"3X c #019A93",
"4X c #02939B",
"5X c #019B9A",
"6X c #089A94",
"7X c #01A799",
"8X c #02B198",
"9X c #02A886",
"0X c #018AA5",
"qX c #0183AC",
"wX c #018EAC",
"eX c #0182A2",
"rX c #0194AC",
"tX c #0299AD",
"yX c #0297A3",
"uX c #018BB5",
"iX c #018BBB",
"pX c #0184B4",
"aX c #0194B3",
"sX c #019BB4",
"dX c #0195BA",
"fX c #019CBC",
"gX c #02A5A6",
"hX c #01A0BD",
"jX c #018EC1",
"kX c #0195C3",
"lX c #01A3C1",
/* pixels */
"I #X#XT.T.#XX.' I ^ / [ ' ) ^ o.[.[...) ) ..<X<X<X<X&X&X#XR.U.] T.' ' ' U.#XT.E.3XT.3X5X5X4X2X2X=X$XR._ `  .#X*X$X=X$X[.R.;X6X$X",
"U T.) V B L m M r r r M m m N N L L L S S L L I U I W F S S L L L A j Z D S L S I U ' _ / / / U I L F e e r M y M M V V V Q T.*X",
"/ X.V C m w 0 9 9 7 7 7 w w r m N S S L L P L L I U U Z Z A A Z Z g e j j Z j Z P U P _ _ / / P L S r 0 w 0 t M j y M N C C / $X",
"( Q C m r 0 9 7 7 7 8 @ 8 9 e e Z S P P P U R R U U P j A k x k k z a j k A j j S U R _ _ _ _ P P S r w 0 0 j e e M L L B B ^ &X",
") ) N r 0 9 9 8 7 9 7 # 8 9 e g Z S D P U R R R U U S A j A G x k z a k A k A j G Y R _ _ _ ' R P L N m r t e 0 0 t L L B B V $X",
"[ ( m 0 9 9 9 9 9 9 9 0 e e e e Z Z D D Y R R _ U U P A k k A k A z p g j j k x J R _ ` ` ` ] _ R P S M m r w 7 0 Z L L L B ^ &X",
"[ Q M 0 9 9 9 9 9 9 0 0 g g e j D D D R R R _ _ U P A k J P P P D A k k k j G G E G.` ] G.] ] ` ` Y N Z e 0 7 9 9 Z L I L B Q &X",
"[ B e 0 q u 8 9 9 0 e i g g g A D D J Y R R R _ R P D J R Y R _ U J J Y J G K T G.Y.G.U.U.G.] _ _ U D Z g 0 0 9 9 Z L L I I Q X.",
") M q $ $ $ $ q 0 e g g k h k A D Y J Y J J Y R Y U E ` ` E V.` ` ` E ` E N.G.Y.Y.R.Y.R.T.U.U.` R P S j e 0 0 0 e S U L U V ^ ) ",
") t 0 p 1 $ $ # 0 i g h k h k k J P P G G A H J K K T ` G.H.G.G.H.U.G.Y.H.Y.Y.Y.!.!.!.R.R.R.Y.G._ P D j g g g g j S / U / ^ V O.",
") t i i i u q p g h k x h k k k x G D A k A G A H G K T D.H.G.D.H.H.H.Q.H.Y.$X!.=X=X=X=X!.R.Y.T.U.` U Z j g j k Z U U / / ( ( W.",
"' M i i 0 a e i g k k k k g k g k x k k k G A k G A G H K N.D.C.N.V.C.H.F.Y.Q.!.=X;X=X$X$XR.!.R.T.] R Y Z k j Z L U / U U ( ( 6X",
"O.L g i i i h h h h k k h j g g l A G x G H J J J Y K J K V.V.N.N.b.b.b.B.F.Q.!.:X=X=X=XR.R.R.R.Y.] R Y D D Z P L U U U ^ ( ( 4X",
" .L F j g g h h k k k h h j i z z l H H H K V.D.D.V.D.E E V.V.N.b.b.b.N.B.C.H.!.:X=X=X=XR.Y.R.R.G.` Y D D D P R L P _ U U ) ) 0X",
"| L L S Z k x k A k k k k x l a n v H H H N.V.F.H.F.F.D.V.T K K K G K b.b.B.F.!.~.-X$X-X!.Y.Y.Y.D.T G x J D U Y P R / U _ ) ) 4X",
"| L I L P A k A D A k h x x c b n H H H H N.C.F.H.F.F.C.B.b.E Y G A A G K b.N.F.P.Y.~.!.Y.Y.Y.G.E G x H Y R _ _ ` R ` _ ' ..[ ].",
"X.I / U I P J D D A k k x x H v n b H b.b.b.b.C.F.F.F.F.C.D.` Y A x h k k J b.b.n.C.H.R.Q.Y.G.G.E J G T E R E ` ' _ ] ' ' ..[ [ ",
"[.^ / / / U P J D G x x x G x G H b.H b.b.b.B.C.F.F.F.D.F.D.G.Y J A x p c G G H K b.C.F.Y.Y.G.G.` E T E ` ` ` ] ] ] ] ] | ..) [ ",
"}./ / ) U R R Y K H G G H H H H H b.m.K m.b.b.C.C.C.B.C.N.N.T J G G G f f k z c c H b.N.G.] G.] G.] G.] G.G.G.U.G.]  . .X...)  .",
"[.[ ) _ R R R E Y b.H H K b.b.b.b.b.b.b.b.b.n.n.n.n.B.B.n.n.b.K K K c c v c n v b c x N.D.D.D.] G.U.G.H.R.Y.T.R.T.T.U. .X.X.' >X",
"%X..) _ R R _ E E E V.b.n.B.n.B.B.B.B.B.n.b.B.B.C.B.C.F.H.C.B.C.B.b.K v h.d.d.v c d.m.B.D.D.F.F.F.F.H.Y.R.$X=X$X$X#X#X[.[.X.X.gX",
"%X| ) _ / E ` D.G.D.D.C.n.C.F.F.F.F.F.L.Z.A.A.A.L.L.Q.Q.^.P.C.B.B.n.n.B.m.b.n.n.n.n.C.F.H.Y.P.P.Q.Y.Q.Y.!.-X;X$X$X$X#X#XX.[.%XgX",
"*X..) ' _ ` D.G.H.G.H.H.L.L.P.P.L.P.P.P.I.A.L.L.L.P.Q.!.~.^.F.C.C.F.P.L.Z.A.Z.L.L.P.L.Q.!.!.~.-X-X~.-X=X!.=X;X$X$X$X#XT.X.[.<XgX",
"o...X.| ' ] G. .U.T.R.Y.R.!.-X-X~.-X=X-X!.Q.P.^.~.~.!.-X~.~.~.^.~.~.~.~.~.^.~.~.-X~.~.:X:X:X3X3X3X:X;X;X;X;X2X2X2X<X<X#X%X[.1XgX",
"o.{.[.{ [ ....].[.X.#XR.$X&X;X2X3X2X2X3X:X-X-X=X3X3X:X-X-X-X-X:X2X:X-X-X9X:X:X:X:X:X:X3X3X2X5X5X5X5X5X5X4X4X4X4X<X4X2X<X%X..4XtX",
"}.@X~ ! ~ _._._._.'.'.{ { ].{.}.%X}.%X%X<X%X}.%X#X%X#X$X#X#X#X%X#X#X[.[.[.[.].%X,X}.[.}.}.{.{.{.,X.XXXXX1X,X1X1XXX%XXX}.{ '.tXgX",
"*X@X! ! _. X+X@X@X+XoX X|.oX X_.|.+X+X|.|..X.XXXXX{.XX.X{.{..XXX|..X.XoX1XOXoXoX1X@XOXeX@XoX|..X@XoX.X X X`.|.'.~ _.'.).~ ~ oX7X",
"*X{.).).|.@XpXiXiXjXiXjXiXiXiXuXuXuXpXuXuXuXaXrXaXaXdXdXkXfXfXhXaXrXaXrXaXaXrXtXhXkXfXfXfXdXdXfXfXdXkXdXaXuXwXqXqXeXeXOX{.{ {.5X",
"*X`.~ `..XoXqXpXiXiXdXjXjXjXiXiXiXiXjXjXkXkXfXdXdXdXdXdXfXdXfXkXlXhXhXfXfXsXhXhXlXlXlXlXfXhXhXhXhXfXhXfXdXaXaXwXwXwX0X0X,X..| -X",
"*X{._.`.`.oX@X@X@X@XpXpXiXuXpXuXuXaXuXdXaXaXaXrXaXrXrXaXaXsXaXsXdXdXsXsXrXrXyXyXtXrXrXrX0XyXtXsXsXtXtXrXyXrXrXwX0X0XOX,X{.].) R.",
"^.*X}.[./ U _ ' [ / ' ' ] ' ` T E ` _ _ E T B.A.N.B.N.G. .]  . .T.G.B.G.D.T T B.B.N.b.c H d.d.m.N.D.D.]  .| o.| ' ) U ^ I I G I.",
"W.-Xc y.;.1.a.a.a.i.i.u.a.i.p.p.f.f.f.f.f.f.k.k.k.k.s.p.p.p.p.<.2.2.3.3.<.2.q.6.6.2.p.2.<.w.<.p.p.2.>.,.;.;.;.t.t.4 4 #.#.$.t./.",
"^.~.d -.-.;.;.>.1.1.2.p.p.k.k.s.k.k.j.j.j.z.e.e.z.9.l.5.4.4.4.3.3.3.4.4.3.4.4.4.5.5.3.4.4.3.4.4.7.5.3.3.3.&.&.=.*.%.&.&.&.@.*.(.",
"E.Q.y.4 4 #.+.@.@.%.%.2.j.2.w.j.q.6.3.4.7.4.7.7.7.8.9.7.7.4.4.3.3.4.4.4.4.4.4.4.4.4.4.4.4.7.7.8.7.7.7.4.3.3.&.&.%.&.&.&.%.@.<.9X",
"K.I.y.:.#.-.+.@.%.&.3.3.3.3.4.4.4.4.4.4.4.4.7.8.8.8.8.8.7.7.4.3.3.4.3.4.4.4.4.3.4.4.4.3.3.4.7.7.8.7.7.7.7.3.&.&.&.&.&.&.%.@.2.8X",
"W.I.r.:.>.>.@.@.&.&.3.3.4.4.4.4.4.4.4.4.4.4.4.4.7.8.8.8.8.4.4.3.3.&.3.3.3.4.4.3.3.3.4.4.3.3.4.7.8.7.8.7.4.3.3.&.%.%.%.%.%.*.a.gX",
"W.~.u.-.>.,.@.%.%.3.3.4.4.4.4.3.4.4.7.7.4.3.3.4.4.7.7.8.7.4.3.3.&.3.&.3.3.3.3.3.6.5.3.3.&.&.3.3.4.7.7.4.4.&.&.&.&.%.%.%.%.,.a.gX",
"W.I.-.;.;.@.%.%.%.&.&.3.3.3.3.3.3.3.4.3.3.3.&.&.&.j.z.0.w.q.q.2.<.&.%.%.&.%.&.=.j.j.q.=.&.%.&.&.3.3.4.3.&.&.&.&.&.%.%.%.%.>.g.gX",
"W.I.$.;.$.@.%.%.%.%.&.&.3.3.&.3.3.3.3.3.&.3.<.1.t.u.p.i.i.i.i.p.<.=.<.<.1.i.i.p.p.p.s.i.,.%.%.&.&.3.5.q.=.&.&.%.&.&.%.*.*.2.M.gX",
"K.I.$.;.*.@.@.%.%.%.%.&.&.&.&.=.<.=.=.<.,.1.i.t.:.r.r.r.y.r.r.i.i.>.t.t.1.1.i.>.t.1.t.t.>.>.%.&.=.p.p.s.s.2.=.=.=.2.=.,.,.2.S.gX",
"K./.#.;.$.@.+.%.%.%.&.&.&.&.&.p.s.k.k.s.p.s.p.t.>.r.r.r.r.d d r.t.>.>.t.>.i.1.t.t.>.r.:.r.>.,.=.1.p.p.s.s.p.t.1.,.2.,.2.2.2.S.gX",
"J./.$.>.,.$.@.@.%.%.&.3.3.3.&.<.g.x.g.s.a.f.s.p.i.>.p.t.y.d d y.r.r.r.r.r.r.t.>.>.t.t.t.>.t.t.i.s.g.a.s.s.g.p.i.i.2.2.2.<.2.v.8X",
"J./.>.;.>.>.@.$.%.%.&.3.3.3.&.=.s.x.x.a.a.a.a.a.i.p.s.i.:.d r.r.r.r.r.r.r.>.t.>.>.>.1.i.i.i.i.i.s.k.g.k.x.g.s.i.i.2.2.<.,.2.c.8X",
"J./.:.;.1.>.>.$.;.*.%.&.3.&.&.,.i.s.s.p.a.f.s.a.>.>.p.>.r.d r.r.>.>.r.r.t.>.>.t.1.t.p.p.s.p.p.p.s.s.k.x.k.g.s.a.i.i.1.2.,.2.p.8X",
"W.L.r.-.;.>.:.:.>.*.%.&.3.3.&.2.i.s.s.a.p.s.a.i.t.>.>.r.d d r.:.>.>.>.>.1.t.1.i.s.p.s.s.k.k.c.x.x.k.k.x.x.x.s.s.i.i.1.s.p.1.s.8X",
"^.M.$.$.>.>.-.:.-.@.%.&.&.3.&.p.1.p.a.p.>.i.i.>.>.r.t.r.d d y.r.>.i.t.>.t.1.i.s.s.s.k.z.z.0.e.l.v.c.c.x.x.x.k.s.s.s.s.p.i.,.s.gX",
"E.A.;.;.>.:.-.4 4 @.@.%.&.&.&.p.>.i.i.1.1.t.>.>.r.r.r.r.d d d r.>.>.i.i.p.p.i.s.k.k.z.4.7.7.7.9.z.x.c.x.x.k.k.k.s.a.i.i.i.>.k.gX",
"E.A.>.-.>.-.: : 3 ; +.%.%.&.&.,.>.1.i.1.>.r.:.r.:.r.r.d s d :.r.r.>.p.i.i.p.a.s.k.k.z.9.4.7.4.7.0.c.c.c.c.x.s.s.a.i.u.i.i.,.v.gX",
"E.A.:.-.:.4 3 5 2 3 +.@.%.%.&.&.1.>.>.>.>.:.d :.r.r.:.d d d r.r.>.>.p.p.a.p.p.k.k.k.k.0.4.4.4.4.6.k.x.c.x.c.s.s.t.u.u.i.t.>.g.6X",
"J.Z.d 6 4 4 < 2 2 < ; +.%.%.%.%.$.>.>.1.>.>.r.:.>.r.6 d d :.:.t.>.>.2.<.p.j.s.s.k.k.k.0.4.4.3.3.q.c.c.k.k.s.a.t.u.u.r.>.1.;.f.gX",
"G.Z.f 5 6 3 3 2 2 < - > @.@.@.@.$.;.>.;.>.>.1.u.p.i.r.d d :.>.>.>.i.2.=.p.p.k.j.j.j.j.5.4.4.3.<.k.x.c.s.s.a.u.u.t.r.t.>.$.-.a.7X",
"] L.f f 6 6 3 3 2 < : #.+.+.+.@.$.$.;.$.$.,.p.i.i.i.>.:.:.>.1.t.>.i.2.&.=.6.p.s.j.k.z.4.5.5.*.p.s.k.s.s.a.u.u.a.t.t.:.-.@.#.t.7X",
"] C.f p 6 4 3 < 2 , : 4 ; ; +.@.$.>.-.$.#.;.i.i.i.>.>.r.:.>.i.>.>.>.i.<.2.<.p.p.p.s.p.q.k.k.k.u.a.s.a.t.u.u.r.t.>.;.-.+.@.+.t.6X",
"` C.f 2 4 6 : < 1 < * 4 -.#.+.@.$.>.:.6 6 >.t.>.:.>.:.6 :.>.i.>.:.i.a.i.i.2.p.i.p.p.p.i.s.k.k.s.s.a.a.t.t.r.:.t.>.%.@.+.@.; -.>X",
"_ N.p , 4 4 : < , , 3 4 6 #.+.+.$.>.6 5 5 6 :.>.:.:.-.:.>.>.>.:.>.t.u.t.>.t.t.i.u.a.s.i.s.s.k.k.s.a.t.t.r.r.4 :.>.@.@.+.+.; :.=X",
"_ m.2 & 3 4 < < 1 , < 4 :.;.@.@.-.:.5 6 5 5 5 5 6 6 6 6 >.>.>.-.:.>.i.t.>.-.>.:.t.a.a.a.a.s.s.k.a.a.u.t.u.d 3 :.;.@.+.+.; > 6 >X",
"/ H 2 & : 4 < * , , < 4 :.>.>.:.:.4 5 4 6 5 5 5 5 5 5 6 :.t.t.:.-.-.t.a.u.u.:.6 u.u.u.u.i.a.s.k.s.a.i.t.t.r.3 :.;.+.+.+.; > r.$X",
"/ x 1 & : 3 * * , , < : :.:.:.:.:.:.4 -.4 4 5 2 3 s 3 5 -.>.t.:.-.:.t.a.i.u.u.y.u.u.u.u.a.a.s.p.p.p.2.>.>.:.d 6 -.+.+.+.- - t.$X",
"/ k . & < * & & * , * 3 :.:.>.>.:.:.-.4 5 3 4 5 5 5 2 3 6 :.:.-.4 6 :.u.u.u.u.r.u.u.y.u.i.u.i.;.%.*.%.@.-.:.5 3 > +.+.; - - y.#X",
"I c & . & & & * & , * 3 4 -.>.:.:.:.4 3 3 2 3 3 4 3 2 2 3 4 4 5 3 3 6 r.r.r.y.d y.r.r.r.u.u.u.;.@.%.@.@.-.r.3 * * - - - = = d X.",
"B G o O & X X o o , & 3 4 -.:.-.6 6 4 3 3 2 < 3 3 3 2 2 < 2 3 3 < 3 3 4 4 d d d r.r.d r.r.r.r.:.@.@.+.+.4 6 < & & - - - % % 5 X.",
"C P # O o O X @ X o & * 3 3 6 6 6 6 3 : < < < < 3 < < < 2 < < < < < 3 5 5 5 5 d d d d r.d d :.:.#.@.; ; 4 6 & % & & = = % . 2 o.",
"C S X   o X + + X X & & & : 3 3 3 : : < < < , < < < < 1 1 1 < < < < < < 5 d 5 3 s s s d 5 5 6 :.+.+.; ; : < & . . & % % . . 2 ' ",
"m Z +   O   + @ + X X o o & & & * & , , < # , , , < , 1 , , , , , < , < 5 5 < < 2 5 < 2 2 2 5 :.-.; ; ; - & o O o . . . O . 2 ) "
};
