/* XPM */
static char *e7646c10c70241c7d3ddc2aa17af0013YQxTl4bZUqTmHBrw[] = {
/* columns rows colors chars-per-pixel */
"64 64 256 2 ",
"   c #BD0B05",
".  c #B50806",
"X  c #BD1406",
"o  c #BD2306",
"O  c #BB2C06",
"+  c #B62E06",
"@  c #BE3306",
"#  c #B83A06",
"$  c #AB3905",
"%  c #C40D06",
"&  c #CC0F06",
"*  c #C41306",
"=  c #CC1406",
"-  c #C41B06",
";  c #CC1B06",
":  c #C01F08",
">  c #D31506",
",  c #DB1406",
"<  c #D41B06",
"1  c #DC1B06",
"2  c #D81C08",
"3  c #D20E05",
"4  c #E21606",
"5  c #E31B06",
"6  c #EA1E06",
"7  c #E51808",
"8  c #C42406",
"9  c #CB2406",
"0  c #C32C06",
"q  c #CC2B06",
"w  c #C92308",
"e  c #D52306",
"r  c #DA2406",
"t  c #D42B06",
"y  c #DB2B06",
"u  c #D92708",
"i  c #C43406",
"p  c #CC3206",
"a  c #C33A06",
"s  c #CB3B07",
"d  c #D23207",
"f  c #DC3206",
"g  c #DD3B06",
"h  c #D63807",
"j  c #E52306",
"k  c #EB2406",
"l  c #E42C06",
"z  c #ED2B06",
"x  c #E52C08",
"c  c #F12507",
"v  c #F22C06",
"b  c #F12708",
"n  c #E23307",
"m  c #ED3306",
"M  c #E43C06",
"N  c #EC3C06",
"B  c #E43B08",
"V  c #F23306",
"C  c #F13C06",
"Z  c #F13509",
"A  c #BB4908",
"S  c #B05107",
"D  c #8C741B",
"F  c #977616",
"G  c #9D750B",
"H  c #A47A09",
"J  c #AC7B08",
"K  c #A87707",
"L  c #B37D09",
"P  c #B97D07",
"I  c #A47812",
"U  c #AD660A",
"Y  c #8A7527",
"T  c #C54707",
"R  c #D84607",
"E  c #C6580A",
"W  c #D95707",
"Q  c #E54206",
"!  c #EB4307",
"~  c #E84A07",
"^  c #F24B06",
"/  c #F24406",
"(  c #E95608",
")  c #F35707",
"_  c #CC6C0C",
"`  c #C7660A",
"'  c #D96609",
"]  c #C9790B",
"[  c #D8770A",
"{  c #D37E10",
"}  c #E76908",
"|  c #F36406",
" . c #F36B06",
".. c #F56708",
"X. c #EC7306",
"o. c #E87508",
"O. c #F37406",
"+. c #F37908",
"@. c #AB8309",
"#. c #A8840A",
"$. c #B4840A",
"%. c #BB840A",
"&. c #B58C09",
"*. c #BB8B09",
"=. c #B78807",
"-. c #BD9209",
";. c #A38718",
":. c #C38409",
">. c #CA8409",
",. c #C38B0A",
"<. c #CC8C0A",
"1. c #C88607",
"2. c #DC8607",
"3. c #D48C07",
"4. c #D48C09",
"5. c #DB8C0A",
"6. c #D78508",
"7. c #C3940A",
"8. c #CB930B",
"9. c #C99808",
"0. c #D4930B",
"q. c #DB930A",
"w. c #D79908",
"e. c #DF9613",
"r. c #E38D07",
"t. c #E78708",
"y. c #F6880C",
"u. c #E49107",
"i. c #E4930A",
"p. c #E39C0A",
"a. c #EB9B0A",
"s. c #EB9507",
"d. c #F1980E",
"f. c #DBA509",
"g. c #DBA90A",
"h. c #D8AA18",
"j. c #D9AF10",
"k. c #EDA40B",
"l. c #E8AA09",
"z. c #F2A809",
"x. c #EAB507",
"c. c #F2B408",
"v. c #E6A918",
"b. c #F3AE16",
"n. c #E9B518",
"m. c #F3B418",
"M. c #DBB52F",
"N. c #E5AC22",
"B. c #EDB62A",
"V. c #F1BA24",
"C. c #ECB938",
"Z. c #EFB22E",
"A. c #CD9423",
"S. c #EDC408",
"D. c #ECC815",
"F. c #F2CE0F",
"G. c #EECA2F",
"H. c #BCAE70",
"J. c #DDB845",
"K. c #DBBC58",
"L. c #C7B657",
"P. c #E8BC49",
"I. c #E2BB54",
"U. c #D5BF62",
"Y. c #EAD55C",
"T. c #F2DA5B",
"R. c #EECA51",
"E. c #D9C875",
"W. c #D6C466",
"Q. c #E8C968",
"!. c #EAD569",
"~. c #F2DA6A",
"^. c #E5CC79",
"/. c #EBD879",
"(. c #F2D877",
"). c #F1CA63",
"_. c #F3E777",
"`. c #EFE171",
"'. c #EAD35A",
"]. c #CDBF8E",
"[. c #B1CFAE",
"{. c #DED497",
"}. c #ECDB84",
"|. c #E7D888",
" X c #E8DC96",
".X c #F0D987",
"XX c #F3E483",
"oX c #F3E48B",
"OX c #F4EA8C",
"+X c #F6F38C",
"@X c #F7F889",
"#X c #EDE192",
"$X c #EAE19A",
"%X c #F2E595",
"&X c #F4EB93",
"*X c #F4ED9C",
"=X c #F1E59A",
"-X c #F6F494",
";X c #F5F59C",
":X c #F7F797",
">X c #EEE187",
",X c #EADDAC",
"<X c #ECE4A6",
"1X c #F4EDA4",
"2X c #F4ECAC",
"3X c #F4E4A8",
"4X c #F5F4A4",
"5X c #F5F8A3",
"6X c #F5F5AC",
"7X c #F6F8AB",
"8X c #EEE5B4",
"9X c #F4ECB3",
"0X c #F4EDBB",
"qX c #F3E4B7",
"wX c #F5F5B3",
"eX c #F6F9B4",
"rX c #F5F4BC",
"tX c #F6F9BB",
"yX c #F8F7BB",
"uX c #EFF3B5",
"iX c #B4DDD7",
"pX c #DBEBD6",
"aX c #D2E5C8",
"sX c #F5EFC2",
"dX c #F6F4C4",
"fX c #F7F9C4",
"gX c #F8F8C6",
"hX c #F6F3CB",
"jX c #F8F6CD",
"kX c #F7F8CB",
"lX c #F8F8CC",
"zX c #F8F5C6",
"xX c #EAF3DB",
"cX c #F5F6D4",
"vX c #F9F7D3",
"bX c #F7F8D3",
"nX c #F8F8D4",
"mX c #F4F5DB",
"MX c #F8F7DB",
"NX c #F6F8DD",
"BX c #F8F8DB",
"VX c #E7EECF",
"CX c #ECF5E4",
"ZX c #ECF6EB",
"AX c #E8F4E8",
"SX c #F5F6E4",
"DX c #F6F8E4",
"FX c #F8F8E3",
"GX c #F6F9EB",
"HX c #F8F9ED",
"JX c #F5F7E8",
"KX c #F6F9F2",
"LX c #F8F9F5",
"PX c #F6F8F3",
"IX c #E6F1E6",
"UX c #D4EEE1",
/* pixels */
"F G J J @.J J K K J J I K K K K K H J K J @.@.L K K K J I I H I K H G F G F I F F F F F F F F G F D D D F Y D F F D D D F D Y Y ",
"$.L ,.<.<.<.>.] >.>.,.:.:.>.>.,.,.*.,.:.1.,.,.,.:.:.:.,.%.%.L K L L L %.P L P %.L %.%.$.J L J K K K U K H I H H @.J K H #.#.G F ",
"=.*.8.0.0.<.] >.>.<.>.<.>.>.:.,.*.8.7.:.,.8.<.<.,.<.<.7.,.,.,.=.,.,.,.7.,.*.%.:.=.%.%.=.=.=.%.$.&.$.$.$.@.$.$.$.=.=.@.#.#.@.#.#.",
"7.0.0.q.q.3.6.2.5.5.5.5.4.<.,.>.:.,.:.] ] <.<.1.<.>.>.,.*.%.=.%.:.,.<.8.,.<.,.,.:.%.%.=.,.=.*.&.-.&.-.&.&.*.7.-.=.&.&.@.#.@.#.#.",
"w.w.p.p.k.q.r.i.i.i.e.r.5.5.6.4.3.0.q.4.>.5.5.3.4.4.1.1.:.P P :.>.:.0.0.4.<.0.4.,.1.1.0.0.*.7.&.*.*.7.-.-.7.8.7.7.-.-.-.&.&.&.#.",
"w.w.w.i.i.5.u.u.i.r.2.t.t.2.r.6.6.2.6.6.6.5.i.5.i.5.<.1.%.:.%.:.>.>.0.0.<.<.4.,.0.<.3.8.9.<.9.7.-.7.A.7.9.9.8.7.7.9.9.-.&.-.&.&.",
"p.w.p.i.a.s.s.s.i.r.6.2.5.t.r.r.s.r.2.6.6.u.u.r.5.q.q.>.] P <.3.0.q.p.q.q.<.e.0.0.3.0.q.w.w.w.9.9.h.K.M.h.h.h.w.f.9.f.9.-.-.-.9.",
"k.k.k.z.z.z.k.k.d.u.i.d.5.e.M.A.e.t.r.u.u.s.d.t.u.s.r.5.3.3.3.3.p.i.5.3.3.3.3.,.<.q.w.w.f.w.w.w.9.J.E.E.K.J.M.h.f.w.g.g.9.9.9.f.",
"l.c.k.k.z.z.z.k.z.k.Z.).I.Q.|.].H.N.r.d.d.z.z.z.k.a.a.p.p.p.q.3.p.p.i.q.q.q.3.3.0.f.l.h.v.h.h.h.J.^.|.|.|.E.E.L.M.M.g.g.f.g.f.f.",
"z.z.z.c.c.c.z.z.z.C.3XzXvXsXqX,X{.^.P.m.m.V.R.).).).(.R.C.C.v.f.v.N.v.N.v.v.v.h.v.N.C.R.).Q.!.(./.|.|./.|.|.|.E.U.R.l.g.l.g.l.j.",
"c.l.l.x.c.V.m.b.p.Q.sXjXvXvXhXqX8X,X#X}.(.XXoXoX%X%X<X.X/.(.^.Q.(.(.(.(.^.Q.K.^.^.Q.Q.!.!..X=X$X|.|.|.>X>X{.E./.W.J.M.g.g.g.j.g.",
"c.l.z.G.).3X2X2X%X9XjXvXvXvXhXhXqX,XqX3X3X1X1X2X9X9X0X0X0X0X0X8XsX9X8X3X9X,X X X X|.|.}./. X<X$X|.|.|.>X$X{.|.|.E.U.M.g.g.g.g.j.",
"c.x.c.R.3XdXsXzXzXgXlXlXhXzXzXrX9X8X9X8X9X9X9X9XrXrXdXtXdXdXdXsXsX0XhX0XdX8X<X3X1X3X%XoX>X|.#X#X$X X|.|.$X$X|./.|.|.E.K.M.j.x.x.",
"c.z.c.(.9XcXjXjXgXgXlXgXhXzXyXrX9X2X2X8X0XdXrXrXzXzXdXkXkXdXdXdXrX0XdXtXfX0X9XwX1X1X%XoX%X%X%XoX>X#X|.>X|.{.|././.OX$X{.E.M.x.x.",
"c.z.G..XsXvXvXnXnXlXnXgXfXfXzXyXfXrXrXrXrXdXdXfXkXfXkXlXdXdXrXrXwX2XwXrXrXuX2X1X*X1X%XoX}..XXX(.`././././.|.|././.#X$X$X{.!.x.x.",
"x.m.~.9XvXnXlXlXjXlXlXgXtXtXzXgXzXgXzXdXtXdXdXkXfXkXkXhXdXdXdXtXwX6XwXwXwXwX2X*X*X*X%XXX/.}.(.!.'.Y.!.Y.!.|./././.-XuX6X$XY.D.S.",
"G._.1XrXvXMXjXjXlXnXlXlXfXfXgXlXbXlXlXgXgXkXgXkXfXfXlXlXkXfXgXrXyX6XeX7XeX6X4X;X;X1X;XXXXX}.>X`.`.~.Y.Y./.XX>X>XoX4XuXwX2XXXG.S.",
"T.9XyXzXvXMXjXjXlXnXnXlXtXfXgXgXnXnXlXlXlXnXlXlXgXgXkXlXlXfXfXtXyX7XeX6X6X6X2X*X*X4X4X*X&XOX>XoX>X~.T.T._.oX>XoX&X4XwXrXwX4XR.S.",
"`.wXvXvXMXnXjXlXnXMXbXlXfXgXgXbXnXlXlXnXlXlXlXlXkXlXkXkXkXfXtXtXeXeX7X7X7X6X2X4X4X6X6X4X-XOXOX&X-X_._._.XX&X%X&X&X4XuX6XtX5XT.S.",
"OXyXMXvXnXBXlXlXnXBXMXMXlXlXkXlXnXnXgXgXgXlXgXlXfXfXfXkXdXtXtXtXeXeXeXeXyXyX6X4X4X6X6X6X*X-X&X4X4X-X-X_.XX&X%X#X*X1X6X6XuX5X_.S.",
"&XgXbXlXMXnXlXgXnXMXlXnXnXnXNXnXMXnXgXkXlXlXlXlXkXfXfXfXtXtXtXtXgXyXeXyXeXeX7X4X;X7XeX4X5X4X7XwX6X4X;X&X&X&X*X*X1X1XuX6X7X4X/.D.",
"OXnXlXlXMXnXlXkXlXlXkXgXgXlXMXbXlXkXfXkXnXnXvXgXfXtXeXtXkXgXtXtXyXgXtXeXeX7X4X:X-X6XeX7X5X7XeX6XwX6X4X&XOX&X*X1X4X6X;X;X4X1XY.S.",
"OXbXbXDXNXBXnXkXMXMXnXlXkXbXBXbXnXgXeXgXgXgXgXfXtXeXeXeXtXgXfXtXtXtXeXeXeX5X;X+X+X;X5X;X5X7X7X7X6X5X;X-X&X&X*X1X4X6X4X1X6X7X!.D.",
"*XMXnXGXDXDXlXlXBXDXnXbXbXDXNXBXlXgXeXfXlXlXbXkXtX5X5XeXtXkXfXtXyXtX7X7X4X:X-X*X*X;X;X:X:X;X5X5X5X;X-X+X-X&X5X4X6X6X7XuXuX<X_.D.",
"*XNXBXDXDXDXnXBXBXNXlXkXlXNXbXlXlXkXfXgXgXlXlXgXtX7X7XwXfXfXfXfXyXeXtX7X7X5X5X4X4X;X;X-X+X+X+X:X-X:X-X+X+X&X+X-X*X4X1X6XuX X/.D.",
"OXNXGXGXHXGXFXNXnXMXfXeXtXlXkXkXbXbXnXnXnXnXnXnXgXtXtXfXfXbXvXgXgXfXfXtXfXtXtXeX7X7X5X5X5X+X+X:X+X-X-X@X-X-X+X+X;X4X7XeXwX<X_.F.",
"XXFXKXHXHXHXGXDXBXNXnXkXkXgXfXlXnXBXBXJXDXDXFXBXnXkXfXgXkXbXbXlXnXkXgXfXfXgXgXtXtXeXeX7X4X;X:X:X:X:X:X@X;X;X5X5X7XuXeXtXeXuX>XD.",
"_.NXGXFXGXHXGXDXBXBXNXFXBXkXkXkXnXBXFXFXDXBXMXFXbXlXgXgXkXlXlXgXlXlXfXfXfXgXgXgXfXgXfXtXeX7X;X:X@X@X@X@X+X:X;X7X6X5X7XeXtXuX_.S.",
"_.kXDXDXDXGXKXGXnXnXNXDXDXkXlXBXBXGXFXDXFXBXnXBXnXlXlXkXfXkXgXgXlXgXlXgXlXkXgXlXkXlXgXfXfXtXeXeX7X5X:X:X:X;X5X7X7X5XeXeXtXwX_.G.",
"_.7XbXGXKXKXLXKXFXBXDXDXDXJXDXGXGXHXGXGXGXDXDXDXDXNXNXnXlXlXnXlXnXMXnXnXnXBXbXMXnXBXlXkXfXtXtXeXeXeX5X:X:X:X:X;X5X7X7XeXfX6X_.G.",
"fXwXbXKXKXLXLXLXLXKXGXJXJXGXKXKXKXLXLXKXDXDXNXDXDXGXFXMXbXvXMXMXBXDXFXMXMXFXBXFXDXDXFXNXNXbXkXfXfXfXeX5X5X6X7X7X7XeXeXfXuX;X@XF.",
"NXrXbXGXKXKXLXLXLXKXKXKXKXKXGXGXGXKXGXDXDXDXDXGXGXGXKXKXGXJXFXGXGXGXJXDXSXNXSXGXGXGXGXGXGXGXGXDXGXDXCXbXbXbXkXkXkXNXNXkXuX5X-XY.",
"CXZXZXGXGXJXSXSXIXCXCXZXJXCXCXAXZXZXCXCXCXZXIXIXIXIXZXZXZXJXZXZXZXJXGXKXZXZXPXPXZXZXZXZXZXZXZXAXAXIXIXpXVXVXpXpXpXCXZXAXpXiX[.[.",
"DXHXKXDXDXSXbXMXNXhXfXhXhXcXmXmXcXmXmXBXMXFXJXJXJXJXmXmXmXIXxXxXZXxXZXDXxXNXCXIXSXJXGXJXCXZXxXxXxXVXaXVXaXaXpXVXIXAXUXiXiXiXiXiX",
"FXJXKXKXKXKXPXHXGXDXJXGXJXGXHXHXJXGXJXJXJXHXHXHXJXGXJXJXGXJXJXJXGXGXGXGXGXGXDXSXSXSXJXFXGXJXJXSXSXSXMXSXNXmXSXFXSXGXJXJXJXJXbXVX",
"JXHXGXKXKXKXKXPXGXKXKXKXKXPXLXLXKXKXGXKXKXPXLXHXKXKXKXPXGXGXJXHXGXHXGXKXLXLXLXKXKXGXHXJXPXPXPXPXHXHXPXPXHXHXHXHXGXJXKXKXGXGXDXBX",
"gXgXgXzXlXhX0X0XdXsX9X9XwXwX0XrXdXsXhXhXvXhXhXhXhXhXhXhXvXcXhXcXMXbXFXSXSXFXJXSXJXFXFXSXFXJXSXSXJXFXDXFXDXNXSXJXDXDXFXFXGXGXGXbX",
"F.F.c.c.c.m.b.c.m.c.b.m.m.m.c.b.b.m.Z.b.b.N.b.Z.n.m.b.m.c.m.v.V.B.C.C.C.C.Z.C.C.C.C.R.C.P.P.P.R.I.I.J.K.K.I.P.I.Q.R.R.T.T.~.OXVX",
"c.y.+.)  .+.O. .| | )  . . . .| | O.| |  . . .O. .| ..O.+.+.+.+.+.X. .} X.O.X.+.y.X.+.X. .}  .X.| }  .+.o.o.+.t.t.s.u.s.a.z.n.(.",
"c.y. .( | | ) ^ / C C / / ^ N M N ) ^ / ^ / ^ ^ ^ ! N ^ ~ ( ( ( ) ~ Q R ~ ( ( ( ~ Q M B M l f M n f f h h g g R ~ } ' o.X.o.d.l.",
"z.+...) ) ^ / / C V N m z V m z n Z C C C Z m m z m m m N M Q ~ ( ~ Q Q ~ ( ~ f y n n n l y y y r e y y y t g g R R W } } o.t.k.",
"y.O...) ^ / V V v z z v v V V V Z Z V V v m v z v v m m n n f Q ~ Q g ~ ~ ( ( B n ! N n l y y r r u t t f g g d h R R W } o.o.a.",
"d.+...) C M V z v c c v v V V v v V V V v l z m z l z z n n f M ~ Q Q Q ~ ~ ~ Q Q ! M n n n f j y y y t g R f t h R W W ' o.t.a.",
"y.+.) ^ ! z z k j j 6 v V V V v v v v v k z j z z j l V V n n n n f f f f g f f g f n y n y y y l n f f f t t d h R W } o.} t.k.",
"y.O.| ! N n x k k k v V V V v z z c v j j 6 j j j j l z l x l n f t e e < e t y y u y y y e t r t t f u t < 9 e d R R W ' X.t.a.",
"y.O.) ^ N l l k v v v v z v c v k V v k j k j j j j j z z x x y u e < e t t t t t e < r r e r t e e t < e < ; ; q R R W } [ t.p.",
"y.O.| / N m z v v V c c k v V v V v k 6 5 j j k j j j l l l r u t t y y t t t e e e < e r t < < < > > < ; = = = e h W W [ o.t.i.",
"y...) ^ / V k v v c c v v c c k k k 6 j j j j j j 4 5 l l l l n f f n f f y r r r 1 e < r < < > < 2 > < > > > ; 9 R R W } o.t.i.",
"+...) ^ N m z v v z c b b b b b k k 6 j j 5 4 r 1 1 j l l y x n f f f f f y t u r < e e < < 2 > < 2 , < < > = > < p R W ' [ 2.5.",
"+.^ ) Z m x k z k k 6 6 k z z k j j 6 5 5 1 1 1 1 1 r j y y l n y t f f d y r e e r < r r e 2 > > < 1 > > = = ; e p R E ' ' 2.5.",
"} Q ~ n x j j 6 6 k k c k k 6 6 4 6 6 4 5 6 5 5 4 1 1 l y r r M B Q Q f f u 2 < < < > < e > > < > = < = = > = > ; t s R W ' [ 2.",
"o.B B f n x k k 6 k b 6 k 6 6 , 7 4 4 4 1 1 1 4 4 1 1 l l j r M B B B f y t 2 2 < < < e y < < e > > < = > & & = ; 9 d R W ' [ 5.",
"o.B B f x x j k 6 k c c k c c 7 6 6 6 4 7 5 7 4 4 1 4 x 5 1 1 y n y f u u r < < < r 2 e u 2 < < < = > & & & & = ; t s R W ' [ 6.",
"} B B n u j k k 6 k c 6 c 6 6 6 c 6 6 4 4 4 , , , , 1 1 , > < < e 2 1 2 1 < 2 < > > = > > > > ; > = = = & % & = ; 8 p h W W _ 6.",
"( B f u u 2 2 7 5 7 7 k v Z b 6 7 7 7 4 7 , , , , , 1 > > 3 , = 2 ; > > < > > = * * = * = > ; = = & = ; = & % % - - 0 s E ' _ 1.",
"W f u w < < 2 7 1 7 6 j x N j 6 , 4 4 , 2 , , , > < , , & & > < < = & = > > * = = & & & * = = % % * ; * - * - * - - 0 s T W ` ] ",
"( h r < = & > 1 1 5 5 z l x 1 1 , , 4 4 5 , , 1 2 2 , 3 > 3 3 2 ; % = & = % & % % % % & * & % % % % % % * - % * % - 8 0 s E ` ] ",
"' d ; ; = = > 2 < 1 r y y r , > , > 1 2 j 1 r 1 > 3 3 & & & & < > * % * % * * % % % % & = X     .   % %         % - 8 0 a T S ] ",
"' s 9 = ; = = e < e r u y > < > 2 2 x f y 2 2 < 2 2 , 2 2 ; 2 ; w * * - * ; - * * % % ; ; -       = *           - - 8 0 a T E ] ",
"_ q 9 ; * 8 9 q p d d d p t ; e e t t t u t r t t f d u w w q w w : w w - w - - * ; - - 9 - * X - = % . .   % X 8 0 8 0 @ T A 1.",
"_ 8 9 8 8 9 q p p q q t p q q q q q d e 9 e e t t u t t w w q w w w : o 0 8 8 o 0 0 i p 0 o 0 X * % *   X o - o O O O o @ A A %.",
"] T 0 q 0 i a a s i p q q q 8 q p p t p q e q u q q t p q w q q 0 0 0 @ + @ # a i a T a @ O @ O o 8 8 o X - o + O + + + + # S %.",
"1.` E T a i a @ @ a @ O o O O 0 0 0 0 p T R s T s t q w o o w 0 O o i # T a T a T T T A T A A A # @ 0 0 O O + + + $ $ $ $ $ U L ",
"A.1.] ] _ ] { _ _ _ _ _ ` _ _ ` W E ` _ _ _ { { _ E E E E ` E E E E A ` ` U ` ` ` E A E ` A E A A T A A A A A A A A S S S U K ;."
};
