/* XPM */
static char * violet_xpm[] = {
"64 64 246 2",
"  	c #19212C",
". 	c #16213D",
"+ 	c #1C304C",
"@ 	c #16264A",
"# 	c #1D3253",
"$ 	c #263557",
"% 	c #28345D",
"& 	c #262D61",
"* 	c #393D63",
"= 	c #2D3264",
"- 	c #383770",
"; 	c #3C3779",
"> 	c #43396F",
", 	c #433A75",
"' 	c #443E6F",
") 	c #48446A",
"! 	c #4D467B",
"~ 	c #5B4A85",
"{ 	c #56506F",
"] 	c #5A487F",
"^ 	c #5F546A",
"/ 	c #6F5776",
"( 	c #172453",
"_ 	c #30306A",
": 	c #313070",
"< 	c #35366C",
"[ 	c #3B3A78",
"} 	c #4B4189",
"| 	c #4C418F",
"1 	c #4C3F9A",
"2 	c #553CAE",
"3 	c #5F3AC1",
"4 	c #5E3BCB",
"5 	c #5540A1",
"6 	c #5F43AE",
"7 	c #6641B7",
"8 	c #5939C5",
"9 	c #5F41A6",
"0 	c #6547B9",
"a 	c #6847C0",
"b 	c #6948C9",
"c 	c #65508C",
"d 	c #1E2951",
"e 	c #2A2C6F",
"f 	c #45388E",
"g 	c #503D93",
"h 	c #5C3AD4",
"i 	c #5639BB",
"j 	c #5F3DD5",
"k 	c #6541D4",
"l 	c #684BD5",
"m 	c #6943C6",
"n 	c #6B4CD3",
"o 	c #1C1B2C",
"p 	c #544396",
"q 	c #6444DB",
"r 	c #694DDA",
"s 	c #7057D9",
"t 	c #6B60E4",
"u 	c #1E2944",
"v 	c #2A2C5D",
"w 	c #5E3FAF",
"x 	c #564296",
"y 	c #4D3E8B",
"z 	c #514086",
"A 	c #6850E0",
"B 	c #6C5BE4",
"C 	c #6B57DF",
"D 	c #724DCB",
"E 	c #7354D3",
"F 	c #7266E6",
"G 	c #574974",
"H 	c #1C2B4C",
"I 	c #55448C",
"J 	c #5D4499",
"K 	c #5F40A5",
"L 	c #6A61EB",
"M 	c #6E68EA",
"N 	c #544964",
"O 	c #6A526D",
"P 	c #1B2634",
"Q 	c #282F4F",
"R 	c #262857",
"S 	c #493D83",
"T 	c #53418C",
"U 	c #563FA0",
"V 	c #514385",
"W 	c #483E7B",
"X 	c #643DC2",
"Y 	c #643FB6",
"Z 	c #4B3C6A",
"` 	c #1E293C",
" .	c #262851",
"..	c #564194",
"+.	c #6441AD",
"@.	c #6E47B9",
"#.	c #6F47B7",
"$.	c #59407B",
"%.	c #55426B",
"&.	c #232B44",
"*.	c #292D57",
"=.	c #24234B",
"-.	c #614893",
";.	c #5B4687",
">.	c #6645AA",
",.	c #614991",
"'.	c #473C67",
").	c #3B3658",
"!.	c #2C314A",
"~.	c #363260",
"{.	c #51407E",
"].	c #5D4285",
"^.	c #252B4A",
"/.	c #302E58",
"(.	c #503B7B",
"_.	c #48356D",
":.	c #373267",
"<.	c #533C84",
"[.	c #43366A",
"}.	c #4E3B73",
"|.	c #3F3463",
"1.	c #4C335B",
"2.	c #312F51",
"3.	c #232544",
"4.	c #504079",
"5.	c #573C8B",
"6.	c #624294",
"7.	c #413166",
"8.	c #3E3359",
"9.	c #2D2B51",
"0.	c #433671",
"a.	c #4E3876",
"b.	c #715085",
"c.	c #3C3155",
"d.	c #342F5F",
"e.	c #363066",
"f.	c #3A326F",
"g.	c #483985",
"h.	c #49367A",
"i.	c #463A7C",
"j.	c #3B3275",
"k.	c #4A3A8B",
"l.	c #352C60",
"m.	c #3F3681",
"n.	c #1D2352",
"o.	c #29275E",
"p.	c #2D2C6A",
"q.	c #262A6B",
"r.	c #37307F",
"s.	c #45378A",
"t.	c #362E6E",
"u.	c #3D337B",
"v.	c #4F3B94",
"w.	c #1B2443",
"x.	c #1A1E43",
"y.	c #1C244B",
"z.	c #212758",
"A.	c #2B2865",
"B.	c #343078",
"C.	c #3E3382",
"D.	c #3B2F7C",
"E.	c #2D2D63",
"F.	c #1A233D",
"G.	c #1A1D3C",
"H.	c #22275E",
"I.	c #302C72",
"J.	c #1B1933",
"K.	c #13182D",
"L.	c #3C2F77",
"M.	c #252351",
"N.	c #1D162A",
"O.	c #1A1E4C",
"P.	c #262763",
"Q.	c #2F296D",
"R.	c #403488",
"S.	c #121734",
"T.	c #22235C",
"U.	c #1E2459",
"V.	c #312D78",
"W.	c #252869",
"X.	c #3A3186",
"Y.	c #3F328C",
"Z.	c #392F81",
"`.	c #191739",
" +	c #2B2A74",
".+	c #45357F",
"++	c #543CA1",
"@+	c #27286D",
"#+	c #483686",
"$+	c #573AAB",
"%+	c #5937B8",
"&+	c #222B3D",
"*+	c #253245",
"=+	c #30354F",
"-+	c #2B3647",
";+	c #25324A",
">+	c #2A3145",
",+	c #2F3649",
"'+	c #363B4A",
")+	c #34374A",
"!+	c #3A3C52",
"~+	c #1C2535",
"{+	c #2F2B44",
"]+	c #2D2A4C",
"^+	c #262438",
"/+	c #23213C",
"(+	c #3B304A",
"_+	c #382E4D",
":+	c #231D3B",
"<+	c #292644",
"[+	c #201E43",
"}+	c #332D45",
"|+	c #2D264D",
"1+	c #282558",
"2+	c #241C32",
"3+	c #261629",
"4+	c #251A2B",
"5+	c #2C1D31",
"6+	c #2B1B2C",
"7+	c #2C2134",
"8+	c #32172B",
"9+	c #331C31",
"0+	c #331B2C",
"a+	c #392333",
"b+	c #42232F",
"c+	c #371B29",
"d+	c #392B55",
"e+	c #2A1629",
"f+	c #231524",
"g+	c #391C33",
"h+	c #36212A",
"i+	c #241925",
"j+	c #2A1524",
"k+	c #2C1925",
"l+	c #1E1423",
"m+	c #321A24",
"n+	c #25151F",
"o+	c #1F141F",
"p+	c #131D3C",
"q+	c #141F42",
"r+	c #162242",
"s+	c #121B35",
"t+	c #0E1933",
"u+	c #0F1A38",
"v+	c #0D172F",
"w+	c #0E1631",
"    . . + @ + + + # # $ $ % % % & # # # # + # # @ @ + + # # # & % % & # * # = - ; ; > * * * * , ' ) ) ! ! ~ { { ] { { ) { { ^ / ",
"  . ( # _ : < - [ [ [ [ } | 1 1 1 | [ [ - < < < [ [ [ - - - [ [ [ } 1 1 | | 1 2 3 4 2 5 2 6 7 8 8 6 9 6 0 a b 0 0 6 0 0 ~ ) c / ",
"  d < e ; } } | 1 1 1 1 2 1 1 1 2 2 | } } } [ f } } } | | } g | 5 2 8 h 4 2 i h j j h 3 j j k l k m 0 0 a b b n n b b 6 { ) { ^ ",
"o # = - [ | p p p 5 2 6 2 2 8 2 8 2 5 1 | [ - } } | | | 1 | p 1 i 4 j h j h h q q q k j q l r r l l b m b b l s t n l b ! ) { / ",
"  u v ; } 5 5 p 6 5 p p 0 8 8 2 2 w 5 x } y z y | | p p 5 5 9 6 4 j j q j 8 h q A A A B B B B C l r s D E E t F t s E D ~ ) G / ",
"  H v _ y | p 5 p 6 5 p 8 8 8 2 2 2 5 5 | I } } p p J p 9 K w w m 4 8 m 8 9 4 A r A B B L L B B s r C E E B F M F C s a ~ ) N O ",
"P H Q R S T x I p p | } | 8 2 1 x U | x T z V } p p } W p J K 9 3 X Y k X 9 4 k n r C C B B t B s E E E E t D D E D D D G Z N N ",
"`  .d  .< T x I ! } } [ } 6 5 1 | ..p 5 V W W x 2 6 9 J 6 +.6 7 +.Y +.m +.+.+.Y Y m m X n s E n D a @.c #.a ~ $.~ #.@.#.' %.N O ",
"&.v *.=.= W I I V } T y x w U 5 U ..U 5 T z , -.Y Y Y +.+.J Y X 7 9 ;.K I I -.I p 9 @.>.>.>.>.>.>.#.#.,.c >.' '.~ ,.,.] ).).G O ",
"!.~.*.u *.> [ S S V x x x 5 w U U K w 9 x W W x 9 X Y >.7 +.7 Y X Y Y w z V I I I >.7 7 >.I -.,.] #.@.@.a @.{.$.c ,.~ ].%.).%.O ",
"^./. . .Q ~.> , , } x x x K w 5 K i 3 X x V V K +.+.Y 7 7 9 Y 7 3 X Y +.{.> T x x Y 9 +.>.J I {.(.,.7 @.#.>.$.G ,.,.;.,.]._.G / ",
"!.Q ^.Q Q /.:.> * V p p K U i 5 K +.3 4 K I V +.+.7 Y Y 7 9 J Y 3 K K w I <...J J 9 -.9 +.I (.[.[.;.-.-.,.;.}.}.$.~ ,.].|.1.$./ ",
"2./.3.^.2.~.> > 4.z K J K K w K ..K X m +.T z K +.+.K -.K I T K K J K w +.5...T z {.4.6.x (.7.).).{.6.;.].4.'.Z $.;.{.Z 8.Z 4.O ",
"2./.=.9.R [.0.0., z 9 x x J x ..y | +.Y J 6...w 3 +.T z J I 6.J 6.K +.3 3 5.5.5.<.(._.z (.> _.0.|.a.a.a._.|.).'.%.Z }.Z 8.[.{.b.",
"c.9.9.d./.e.f.:.f.W ..T z y T g.S y T T z g.y K K J J K 3 Y Y w T 6.w 4 +.(.h.i.<.(.> (._.0._.[.|._.(.> [._._.Z Z }.}.|.c.}.;.G ",
"^.9.d.R d.0.0.e.:.< i.g.S g.; ; j.g.S g.y g.i.T g k.g.T x ....I T T ..K T :.f.~.[.|.[.[.|.|.|.8.8./.Z _.}.Z |.Z Z a.|./.8.(.].].",
"&.l.e.e.j.; i.; [ g.y ..| ..[ < m.[ | g y k.j.j.; S ; i.y m.k.T | ....| ..y k.i.z T z T T z |./.2.2./.[.|.|.> (.$.(.[.|.:.~./.(.",
"=.R n.R *.v e._ _ < j.o._ p.q.r.; s.; m.s.m.; = *._ t.j.s.u.; m.v.g ..g.g.g.u.e.f.i.0.|.|.:.*.Q  .~.f.> 0., 0.W z I {.i.e./.2.|.",
"w.w.x.y.y.w.y.z.o.z.A.H z.z.z.p.q.r.; r.; : j.& & q.q.< : _ : B.r.; C.D.j._ v E.e.j.f.f.j.f.d.d.*././.Q *.*.[.[.~././.v *.*.Q ~.",
"F.w.G.x.@ y. .d z.z.R n.H.: ; m.[ : : : : e : _ _ & _ e _ & = p._ _ : u.j.j._ : j.; u.j.; j.j.f.e.f.f.f.e.e.0.:././.*./.d.*.*./.",
"o x.x.y.n.d d z.z.o.E.H.I.; B.= v v z.E.q._ : : _ & & & : _ _ _ _ _ E.E.e.e.E.E._ m.u.j.j.u.u.h.t.t.f.i.g.j.:.|.~.e.R y. .R Q Q ",
"J.x.@ z.R z.v E.v : : z.& _ E.v & E.$ v = _ ; : e q.< < [ : _ : [ m._ E.A.p.A.R e.u.j.j.; C.u.j.f.t._ :.:.- e.:.e.e.*.9. . .^.R ",
"K.y.y.n.H.v & & z.v _ z.E.E.E.& E.E.& E._ p.< e < < [ f f [ [ e m.; m.u.u.u.D.I.t.k.g.u.C.u.L.L.t.p._ f.u.j.~.~.d.e.e.t.v R w.M.",
"N.O.P.P.& P.P.H.z.z.v o.o.& Q.p.: & & p.e & = q.q._ e B.r.r.B.B.r.s.s.m.R.R.R.R.C.s.s.m.k.C.j.t.t.L.u.L.I.L.j.L.t.p.C.C.C.v M.u ",
"S.H.A.T.( U.T.H.z.z.& H.P.H.Q.I.q.& P.V.V.W.p.p.q.p.e I.B.B.B.e B.r.r.X.r.r.Y.f R.C.Z.Z.k.s.C.D.Q.I.D.D.D.u.L.D.L.p.E.p.I.D.p.d ",
"`.H.T.T.@ ( U.U.T.P.e P.A.P.q.e e q.q.V.V.q.I.I.B.: B.; B.V.B.B.r.m.X.r. +r.X.Y.r.V.u.r.R.s.r.V.L.V.I.D.D.V.u..+t.A.z.o.t.L.D.E.",
"x.o.T.P.( ( T.U.U.P.e I.q.W.W.W.q.W.W.q.q.q.V.V.r.s.r.s.m.V.B.e B.r.f Y.X.X.X.X.r.e I.V.V.: Z.Z.V.V.I.I.I.L.++R.D.A.t.I.E.U.p._ ",
"O.T.U.P.U.T.P.P.H.P.Q.I.e q.q.W.W.W.W.q.q.e B.V.r.s.r.V.r.V.e e  +r.X.f Z.X. +X.r.e p.I.q.I.Z.Z.V.Z.V.Q.p.u.K C.L.E.Q.L.I.p.: j.",
"U.o.n.T.T.T.T.T.T.W.A.Q.@+@+@+@+@+W.@+e  +r.I.e  +V.: e V.Z.B.V.V.V.V.r. +Z. +Y.f V.B.D.e p.R.C.Z.R.C.I.p.u.v..+t.e.A.A.p.u.u._ ",
"o.o.n.U.T.T.T.T.A.W.Q.Q.Q.Q.I.V.e q.e r.V.r.V.e e V.e e V. +V.B.V.V.r.r.X.X.V.Y.s.B.C.R.I.p.r.u.V.Z.Z.L.j.C.k.j.t.t.A.t.I.k.g.L.",
"A.A.o.U.T.P.A.A.Q.Q.I.I.I.I.V.X. +e I.I.: I.I.Q.p.u.C.B.e q.e : V.r.r.X.m.V.V.r.B.j.u.C.I.D.L.u.C.k.L.L.g.v.++#+.+L.L.D.#+v.y g.",
"A.t.A.o.o.A.A.o.A.A.t.D.p.p.I.I.e V.I.I.e I.I.I.I.: D.D.B.: : r.B.m.R.f f ; r.m.m.C.k.k.C.g.C.u.k.k.C.#+#+k.v.y #+.+D.L.L.y v.h.",
"v L._ A.o.A.A.o.o.A.L.u.D.p.: I.V.B.u.I.I.I.u.: j.B.D.m.r. +B.B.I.m.s.s.s.R.u.R.m.#+k.k.k.k.m.g.#+g.k.k.y v.y ....k.#+.+.+g...g.",
"e.L.j.j.p.t._ E.p.: j.D.D.: I.: D.B.C.r.Z.C.m.s.k.s.s.f m.m.C.m.B.; ++v.v.v.C.y v.#+k.y g g g v.u.g.g ++++y g...K J k..+L..+g.5.",
"e..+j.j.u._ e.& E._ _ f.p._ _ e I.: m.m.g.s.v.v.v.g y v.g f $+++++++$+$+++++k.v.v.y v.y k.y ..y i.g.i.g g ..T x ..5.g..+j..+i.T ",
"e.; u.u.- _ :._ j.j._ e.: : : B.[ s.y v.....++1 1 5 $+1 $+1 $+1 $+%+%+%+%+%+$+%+$+$+K $+++....g T k.g.T x U U x T k.g..+i.g.z z ",
" ._ > = e.:.= = = % ~.v = - - ; S z S V I z I W W i., W V z S W z z I x g T y T I I I J K z T I z <.W W I z I V V ! ) ) I ;.! '.",
"&+&+` ` 3.&.&.` u &+u &+*+!.=+-+Q !.=+Q =+!.;+*+*+>+*+,+-+-+-+'+-+*+=+=+>+>+*+&.>+!.=+=+=+-+!.;+*+&.>+-+)+!+!+!+!+!+!+'+!+!+N %.",
"&.P P ~+~+~+P P P P P P ` &.-++ ;+*++ !.;+*+*+*+&.*+>+*+*+*+;+;++ *+;+,+*+{+&.&+&+]+]+>+&.&+&+&+^+P &+&+,+'+'+'+!+'+'+'+-+'+!+^ ",
">+&+/+P P ~+P P &+&.&+&+` ;+;+;++ ;+^.;+^.*+&.*+>+!.;++ ;+*+*+;+-+;+-+=+-+>+&.&.&.!.!.>+>+>+{+&+` &+-+-+,+'+=+'+-+-+-+'+-+'+!+) ",
"2.&.F.&+&+P ~+&.&.&.!.Q ;+;+Q ;+;+^.^.]+^.]+>+>+!.;+!.!.;+^.!.=+'+=+=+!+).8.=+=+).).).)+!.=+!.(+{+>+!.!._+)+,+(+'+)+)+=+_+=+).%.",
"9.y.=.n.y.G.:+:+3.=.{+{+<+<+<+3.<+/+[+<+^+{+}+}+}+{+{+}+]+&.&.!.Q =+8.=+c.8.!.]+_+c.c.c._+_+c.c._+_+c.8.c.(+(+(+(+(+_+9.]+]+|+|+",
"3.M.=.1+y.:+:+:+^+^+:+2+2+2+2+2+2+2+2+3+2+4+5+6+4+7+5+7+7+^+^+7+^+7+:+7+7+7+2+6+6+5+6+5+5+5+8+9+0+0+9+9+a+a+7+a+b+c+a+d+|+<+<+3.",
"u O.=.y.F.4+5+4+4+2+2+2+2+2+2+4+5+6+3+e+f+3+4+3+4+6+5+5+7+0+6+7+7+0+7+7+9+9+0+0+6+9+5+9+g+g+g+9+0+9+9+g+9+9+g+h+g+c+a+=+]+<+<+3.",
"=.y.=.=.^+6+6+i+3+J.2+e+e+3+e+3+8+e+3+j+3+3+4+e+e+6+6+9+5+5+0+5+7+0+7+5+h+7+6+6+6+9+0+9+9+g+g+g+0+8+9+0+h+9+a+g+a+a+a+(+]+]+&.<+",
"=.3.=.=.7+k+i+o 3+3+6+4+e+e+3+3+3+l+3+3+3+f+3+e+e+6+6+9+6+5+4+0+0+0+0+7+5+6+6+e+6+0+6+6+6+e+8+8+8+8+8+8+0+c+b+b+b+h+b+(+c.9.<+<+",
"3.y.w.x.6+k+i+f+3+3+3+3+3+3+3+3+3+3+l+3+e+e+3+3+3+e+4+4+i+4+i+i+6+k+5+5+6+6+k+j+6+6+e+i+e+k+e+e+m+8+8+k+m+c+c+c+m+c+b+(+c.2.9.|+",
"[+y.@ F.i+i+n+l+f+3+3+3+3+N.3+3+l+l+f+f+f+e+j+f+f+f+f+i+i+i+i+i+i+n+i+i+f+i+f+f+j+j+j+k+k+k+j+m+8+m+j+j+m+c+m+m+m+m+h+(+{+ .=.9.",
"[+w.x.G.i+o+l+l+f+l+f+N.l+f+l+l+l+l+l+l+l+l+f+o+o+l+f+f+l+l+o+o+o+l+l+f+f+f+o+n+n+k+j+f+f+n+n+j+n+n+n+j+k+k+j+m+m+n+j+}+]+ .^.9.",
"M.y.x.G./+o o K.N.o 2+J.J.J.`.`.`.N.N.N.N.l+N.N.N.N.N.J.o o N.i+4+2+^+2+4+2+3+6+2+5+6+5+6+4+3+3+j+i+f+f+i+k+k+k+m+m+3+8.^.=.=.9.",
"M.A.H.z.y.p+p+P p+G.F.G.G.p+p+p+q+q+p+r+q+y.O.( O.( O.n.@ F.. r+u R /.*./.d.A./.d.d.l.R R /.l.7.7.7.=.:+J.^+^.9.d+]+8.$.7.d.~.[.",
"1+v o.o.. K.S.s+s+p+w.p+G.p+p+O.r+q+( ( U.U.T.T.U.r+G.( @ @ u + @ r+y.u y.y.@ y.=.y.d d H ]+^.&.3.&.F.3.u 3.&.3.F.~+&.$.].a.a.a.",
"1+A.o.o.t+s+S.K.s+r+r+r+w.. q+q+q+q+( ( ( ( U.( ( q+p+w.y.w.r++ H @ H H y.y.p+r+y.u u ^.+ ^.&.&.&.&.&.3.u &.u &.3.w.<+(.].].a.h.",
"R H.P.U.t+t+t+K.s+u+p+p+p+p+p+p+u+u+q+q+x.q+@ p+. q+p+x.. s+s+. . P P . F.. . p+. F.w.u w.u w.w.u &.&.F.F.u F.u u ^.=.].].].(.a.",
"y.T.H.n.t+v+v+v+S.S.p+u+u+u+p+p+p+q+q+. p+p+q+p+p+p+G.r+. t+. . F.F.. . w.. r+p+. . w.u F.w.F.F.w.w.&+F.F.F.. w.F.y.=.$.6.].]._.",
"x.n.U.( v+v+t+t+w+p+u+p+u+u+p+u+p+p+p+p+w.p+p+G.p+. r+. . s+. . F.. p+p+. . p+. . . F.F.F.. G.F.G.s+G.F.F.F.w.w.F.@ O.<..+h.h.7.",
"@ z.z.z.t+v+S.t+t+u+p+p+u+u+p+u+u+r+. . @ F.x.G.q+r+r+H r+F.. r+. . r+. r+. p+. . F.. F.F.. G.F.F.p+G.F.w.F.w.r+w.u n..+].<.<.f.",
"O.U.T.U.t+t+S.t+S.p+p+p+p+u+p+p+. r+. r+u u w.w.F.. r+u r+r+r+u r+u w.u r+. . p+. . F.. F.F.F.. G.G.F.F.G.w.r+H H n.d <.5.6.6.h.",
"n.T.z.z.s+t+t+S.S.p+p+. r+p+r+p+r+r+r+F.y.u r+q+q+F.r+H r+r+r+u . w.u u u . . w.r+w.w.r+w.F.F.F.F.w.w.F.F.3.u H  .+  .h..+<.].a.",
"d H.H.R p+t+s+S.s+p+r+w.. . r+r+r+r+. y.@ u y.u G.r+@ @ @ r+w.u F.r+u @ H w.x.F.F.w.F.F.. F.F.w.F.w.u &.H ^.;+;+;+H ^.p.L.h.h._.",
" .o.o.R y.s+s+s+p+G.F.w.w.F.r+y.r+u y.w.r+y.^.3.w.w.u =.@ G.w.w.w.G.w.x.w.w.F.F.w.3.w.` &.w.F.3.w.w.^.^.;+Q 2. .9.=.M.7.7.h.h._.",
"y.O.n.M.d x.S.s+s+p+F.G.F.F.F.y.n.n.@ r+u y.=.M.R =.y.9.y.M.M.=.3.=.x.O.w.x.p+G.w.3.&.&.&.<+F.x.w.&.^.]+2.]+]+;+|+=.d+_._.a.$._.",
"[+x.x.y.y.x.x.G.G.x.y.@ u =.H R z.1+y.y.n.d o.1+o.o.R A.o.A.A.o.R o.1+o.U.M.O.y.n.M.M.^.^.=.=.=.M.9.|+9.|+]+]+2./.8.d+7._.a.a.%.",
":+`.`.[+3.[+w.y.O.M.9.1+=.y.y.n.n.1+1+d R 1+M.=.M.=.M.9.1+M.M.n.n.n.M.O.O.O.O.y.M.M.M.=. .=.=.=.=.=.|+|+|+|+9.9.c.d+d+d+1.7.1.1."};
